#!OML:ASF F:\VICON\USERDATA\INSTALL\rory3\rory3.ASF
:FULLY-SPECIFIED
:DEGREES
317
root 0.558435 15.6988 3.46757 -5.77348 3.17663 -1.40029
lowerback 16.0299 1.38914 -1.93012
upperback 2.95517 1.69369 2.70874
thorax -5.97062 0.888781 3.62311
lowerneck -15.4425 -5.03333 -10.6108
upperneck 29.008 -6.04748 6.06377
head 12.7534 -3.0654 3.2051
rclavicle 1.58531e-014 6.36111e-015
rhumerus -36.5438 -2.19318 -76.2462
rradius 33.2819
rwrist 3.04371
rhand -20.1901 13.6387
rfingers 7.12502
rthumb 6.15631 -16.2518
lclavicle 1.58531e-014 6.36111e-015
lhumerus -34.2612 17.0198 81.3607
lradius 33.5312
lwrist 7.78951
lhand -25.8189 29.2696
lfingers 7.12502
lthumb 0.720691 59.2481
rfemur -32.1566 -2.07766 23.5631
rtibia 63.5565
rfoot -17.3 -8.95396
rtoes 3.55774
lfemur -35.912 -0.0482566 -21.1115
ltibia 61.3255
lfoot -15.3114 -1.13276
ltoes 2.40348
318
root 0.569991 15.7516 3.56581 -5.82121 3.11429 -1.26631
lowerback 16.0599 1.26867 -1.78938
upperback 2.74332 1.55042 2.55723
thorax -6.19405 0.81995 3.41044
lowerneck -15.4313 -4.9184 -10.5628
upperneck 29.1721 -5.90339 6.0577
head 12.8005 -3.00031 3.2219
rclavicle -6.41081e-015 6.36111e-015
rhumerus -36.9898 -2.47083 -76.7116
rradius 33.7215
rwrist 2.55671
rhand -19.6225 14.7176
rfingers 7.12502
rthumb 6.70425 -15.1562
lclavicle -6.41081e-015 6.36111e-015
lhumerus -34.685 16.5801 81.7035
lradius 33.1064
lwrist 7.96449
lhand -25.3207 27.8996
lfingers 7.12502
lthumb 1.20179 57.8759
rfemur -31.3452 -2.13256 23.3606
rtibia 62.9912
rfoot -17.491 -8.86248
rtoes 4.08683
lfemur -35.041 0.464649 -21.2502
ltibia 60.6984
lfoot -15.2375 -1.02417
ltoes 3.54301
319
root 0.577965 15.8184 3.6642 -5.92728 3.15037 -1.18055
lowerback 17.0474 1.01564 -1.33205
upperback 1.84129 1.27302 2.15503
thorax -7.66529 0.693692 2.77419
lowerneck -14.8213 -4.59579 -10.4049
upperneck 29.6711 -5.6385 6.26085
head 12.847 -2.85867 3.33758
rclavicle -4.82053e-015 -5.96354e-015
rhumerus -38.6006 -2.73234 -77.4173
rradius 34.3028
rwrist 2.78082
rhand -18.5806 15.6628
rfingers 7.12502
rthumb 7.70997 -14.1767
lclavicle -4.82053e-015 -5.96354e-015
lhumerus -36.3837 15.2644 81.5137
lradius 33.1418
lwrist 7.87039
lhand -25.3423 27.4371
lfingers 7.12502
lthumb 1.18096 57.4135
rfemur -30.3508 -2.35018 23.2021
rtibia 62.1719
rfoot -17.638 -8.66515
rtoes 4.55565
lfemur -34.0136 0.846778 -21.3187
ltibia 59.8891
lfoot -15.002 -0.951727
ltoes 4.90185
320
root 0.582637 15.892 3.75515 -5.8707 3.28927 -1.17332
lowerback 16.8522 0.874474 -1.19561
upperback 1.68291 1.11343 2.13994
thorax -7.71638 0.614063 2.71849
lowerneck -14.5873 -4.5265 -10.4478
upperneck 29.3822 -5.4971 6.12848
head 12.6616 -2.81915 3.31135
rclavicle -9.0944e-015 -2.14687e-014
rhumerus -39.0723 -3.01139 -77.5733
rradius 34.9839
rwrist 2.98442
rhand -17.5072 16.0967
rfingers 7.12502
rthumb 8.74594 -13.7021
lclavicle -9.0944e-015 -2.14687e-014
lhumerus -36.8903 14.0464 82.3607
lradius 33.3967
lwrist 6.97922
lhand -25.8305 26.9554
lfingers 7.12502
lthumb 0.709469 56.9339
rfemur -29.4628 -2.62384 23.1463
rtibia 61.1788
rfoot -17.6775 -8.53319
rtoes 4.52416
lfemur -33.1314 1.02919 -21.3015
ltibia 58.9706
lfoot -15.8119 -1.59672
ltoes 2.86022
321
root 0.589315 15.9745 3.84851 -5.74109 3.30389 -1.13615
lowerback 16.5085 0.789299 -1.07671
upperback 1.58762 1.02224 2.1125
thorax -7.62146 0.565733 2.64316
lowerneck -14.6783 -4.57297 -10.3447
upperneck 29.1646 -5.47944 5.81971
head 12.5779 -2.8353 3.16948
rclavicle -1.78906e-015 -6.36111e-015
rhumerus -39.5613 -3.19698 -77.7821
rradius 35.7545
rwrist 3.03791
rhand -16.9646 16.8593
rfingers 7.12502
rthumb 9.26951 -12.9169
lclavicle -1.78906e-015 -6.36111e-015
lhumerus -37.3904 13.0851 83.0749
lradius 33.7475
lwrist 4.74999
lhand -25.8058 26.0418
lfingers 7.12502
lthumb 0.733317 56.0202
rfemur -28.523 -2.75952 23.07
rtibia 60.028
rfoot -17.5312 -8.41905
rtoes 4.14014
lfemur -32.2043 1.22313 -21.3121
ltibia 57.9115
lfoot -16.9284 -1.92244
ltoes -0.280401
322
root 0.597075 16.068 3.94316 -5.72224 3.34291 -1.11725
lowerback 16.2748 0.68555 -0.941074
upperback 1.43115 0.90895 2.07777
thorax -7.65193 0.50758 2.55515
lowerneck -14.7035 -4.5793 -10.3064
upperneck 29.1746 -5.48183 5.76227
head 12.5844 -2.83989 3.13983
rclavicle -1.94312e-014 -1.19271e-014
rhumerus -40.1428 -3.50311 -77.9284
rradius 36.3023
rwrist 3.61606
rhand -16.8965 17.7053
rfingers 7.12502
rthumb 9.33525 -12.0679
lclavicle -1.94312e-014 -1.19271e-014
lhumerus -37.9947 12.4164 83.5972
lradius 34.0285
lwrist 1.8879
lhand -25.0837 24.9585
lfingers 7.12502
lthumb 1.43077 54.9335
rfemur -27.3414 -2.86459 22.978
rtibia 58.7155
rfoot -17.4467 -8.22138
rtoes 4.46476
lfemur -31.0602 1.34868 -21.2966
ltibia 56.6912
lfoot -16.4701 -2.25306
ltoes 3.01205
323
root 0.603703 16.1709 4.02665 -5.79297 3.44003 -1.13967
lowerback 16.0828 0.550839 -0.869534
upperback 1.37097 0.749733 2.14516
thorax -7.60203 0.429433 2.62284
lowerneck -14.6107 -4.53312 -10.4735
upperneck 28.9876 -5.40899 5.87989
head 12.4913 -2.81123 3.22285
rclavicle -9.56651e-015 -1.63003e-014
rhumerus -40.4567 -3.77974 -77.895
rradius 36.7722
rwrist 4.68888
rhand -16.8722 17.739
rfingers 7.12502
rthumb 9.35866 -12.0333
lclavicle -9.56651e-015 -1.63003e-014
lhumerus -38.5966 11.9618 84.199
lradius 34.4973
lwrist -0.857168
lhand -25.0146 23.3507
lfingers 7.12502
lthumb 1.49746 53.3252
rfemur -26.0317 -2.86618 22.9355
rtibia 57.2297
rfoot -17.2772 -8.16582
rtoes 5.10826
lfemur -29.7944 1.36131 -21.2373
ltibia 55.2904
lfoot -16.0131 -2.49078
ltoes 3.90647
324
root 0.611078 16.2779 4.10359 -5.78042 3.43938 -1.03674
lowerback 15.7574 0.482107 -0.949386
upperback 1.39711 0.649408 2.21646
thorax -7.38977 0.382374 2.76594
lowerneck -14.4932 -4.5353 -10.6976
upperneck 28.5381 -5.36628 5.94579
head 12.2919 -2.80516 3.28495
rclavicle 2.16178e-015 4.37326e-015
rhumerus -40.666 -4.16121 -77.7144
rradius 37.4619
rwrist 5.92873
rhand -16.5694 16.6439
rfingers 7.12502
rthumb 9.6508 -13.115
lclavicle 2.16178e-015 4.37326e-015
lhumerus -39.0797 11.497 84.8231
lradius 34.9104
lwrist -3.3741
lhand -26.1701 22.8844
lfingers 7.12502
lthumb 0.381444 52.8638
rfemur -24.8471 -2.75207 22.7734
rtibia 55.62
rfoot -16.8026 -8.13206
rtoes 5.55344
lfemur -28.5468 1.29507 -21.3102
ltibia 53.716
lfoot -15.6434 -2.60732
ltoes 3.72853
325
root 0.617512 16.3936 4.1794 -5.59885 3.30032 -0.917749
lowerback 15.4045 0.488953 -1.00837
upperback 1.25332 0.65125 2.23568
thorax -7.34955 0.386347 2.81947
lowerneck -14.3934 -4.55699 -10.7995
upperneck 28.2576 -5.37596 5.96056
head 12.1647 -2.81709 3.30155
rclavicle -8.15017e-015 -7.15625e-015
rhumerus -41.1262 -4.7194 -77.5079
rradius 37.983
rwrist 6.78999
rhand -16.625 16.049
rfingers 7.12502
rthumb 9.59721 -13.7124
lclavicle -8.15017e-015 -7.15625e-015
lhumerus -39.4895 10.9425 85.3489
lradius 34.7666
lwrist -4.82672
lhand -27.3101 23.0999
lfingers 7.12502
lthumb -0.719587 53.0784
rfemur -23.8156 -2.55135 22.6141
rtibia 53.9064
rfoot -16.2402 -8.02401
rtoes 5.95966
lfemur -27.4189 1.23289 -21.3793
ltibia 52.0056
lfoot -15.2157 -2.68895
ltoes 3.86882
326
root 0.621921 16.5095 4.25667 -5.37887 3.15629 -0.965402
lowerback 15.106 0.490771 -0.866346
upperback 1.03755 0.683254 2.27161
thorax -7.4161 0.400491 2.77072
lowerneck -14.5115 -4.58596 -10.9231
upperneck 28.2978 -5.40207 6.0547
head 12.2153 -2.82939 3.35414
rclavicle -4.19933e-015 1.51076e-014
rhumerus -41.5691 -5.22981 -77.3641
rradius 38.0942
rwrist 6.69544
rhand -17.1104 16.1529
rfingers 7.12502
rthumb 9.12883 -13.6295
lclavicle -4.19933e-015 1.51076e-014
lhumerus -39.9719 10.3027 85.8732
lradius 34.6958
lwrist -5.10304
lhand -27.2778 23.3189
lfingers 7.12502
lthumb -0.688441 53.2975
rfemur -22.7089 -2.26756 22.653
rtibia 52.1244
rfoot -15.886 -7.92813
rtoes 6.40301
lfemur -26.3017 1.11576 -21.2642
ltibia 50.2215
lfoot -14.7212 -2.64149
ltoes 4.20922
327
root 0.621877 16.6237 4.33355 -5.09844 3.27828 -0.997083
lowerback 14.5928 0.42296 -0.777253
upperback 0.926198 0.61051 2.30028
thorax -7.24466 0.362115 2.76473
lowerneck -14.7288 -4.63028 -10.9576
upperneck 28.2612 -5.45665 6.13744
head 12.2549 -2.84329 3.37993
rclavicle 9.93923e-015 -1.07344e-014
rhumerus -41.7711 -5.78273 -77.2852
rradius 38.0274
rwrist 5.82576
rhand -17.761 16.0306
rfingers 7.12502
rthumb 8.50098 -13.7783
lclavicle 9.93923e-015 -1.07344e-014
lhumerus -40.1909 9.58601 86.5064
lradius 34.632
lwrist -4.27119
lhand -27.606 22.2847
lfingers 7.12502
lthumb -1.00534 52.2621
rfemur -21.6042 -2.06348 22.6846
rtibia 50.3001
rfoot -15.51 -8.04347
rtoes 6.49452
lfemur -25.2584 0.728211 -21.2049
ltibia 48.4014
lfoot -14.1704 -2.45317
ltoes 3.9269
328
root 0.620944 16.7331 4.40824 -4.81059 3.53201 -0.85478
lowerback 13.8753 0.349538 -0.909482
upperback 0.928328 0.489636 2.30034
thorax -6.83609 0.303429 2.86068
lowerneck -14.9891 -4.68406 -10.8309
upperneck 28.1009 -5.51028 6.05779
head 12.2433 -2.85705 3.31237
rclavicle -6.16232e-015 -2.78299e-015
rhumerus -41.9129 -6.35984 -77.184
rradius 38.0691
rwrist 4.82584
rhand -18.3985 15.2729
rfingers 7.12502
rthumb 7.88569 -14.56
lclavicle -6.16232e-015 -2.78299e-015
lhumerus -40.1403 9.11721 87.066
lradius 34.4054
lwrist -3.12579
lhand -27.9367 21.331
lfingers 7.12502
lthumb -1.32478 51.3067
rfemur -20.5359 -1.9659 22.5153
rtibia 48.4516
rfoot -14.9761 -8.1927
rtoes 5.80141
lfemur -24.2069 0.228546 -21.3533
ltibia 46.5388
lfoot -13.5918 -2.33968
ltoes 3.94014
329
root 0.6206 16.8336 4.4722 -4.5917 3.52121 -0.792109
lowerback 13.4157 0.364534 -1.01874
upperback 0.821529 0.497552 2.35879
thorax -6.69522 0.311056 2.98192
lowerneck -14.9907 -4.73689 -10.7177
upperneck 27.9085 -5.56628 5.90748
head 12.1644 -2.88638 3.22222
rclavicle -9.19379e-016 -1.31198e-014
rhumerus -42.254 -6.9607 -76.8552
rradius 38.118
rwrist 4.38727
rhand -19.4235 15.3231
rfingers 7.12502
rthumb 6.89638 -14.5446
lclavicle -9.19379e-016 -1.31198e-014
lhumerus -40.2908 9.2485 87.226
lradius 34.116
lwrist -3.056
lhand -26.6204 21.5667
lfingers 7.12502
lthumb -0.0534709 51.5464
rfemur -19.4783 -1.55657 22.4497
rtibia 46.5915
rfoot -14.3058 -8.26978
rtoes 5.59368
lfemur -23.1147 -0.116726 -21.3727
ltibia 44.6431
lfoot -13.0175 -2.15628
ltoes 4.06701
330
root 0.617989 16.9419 4.53272 -4.36767 3.4326 -0.642342
lowerback 13.1522 0.391186 -1.21678
upperback 0.599468 0.50852 2.39204
thorax -6.78742 0.326344 3.12842
lowerneck -14.9354 -4.74689 -10.6333
upperneck 27.8114 -5.57084 5.78251
head 12.1082 -2.8951 3.15788
rclavicle -7.72775e-015 1.90833e-014
rhumerus -42.8125 -7.57225 -76.4398
rradius 38.3493
rwrist 4.10341
rhand -20.1789 15.8144
rfingers 7.12502
rthumb 6.16715 -14.0758
lclavicle -7.72775e-015 1.90833e-014
lhumerus -40.6364 9.40098 87.2928
lradius 33.8022
lwrist -2.58465
lhand -25.8997 21.6098
lfingers 7.12502
lthumb 0.642598 51.5886
rfemur -18.4573 -0.983145 22.2957
rtibia 44.7318
rfoot -13.585 -8.3136
rtoes 6.69782
lfemur -21.9942 -0.470495 -21.464
ltibia 42.7202
lfoot -12.471 -1.89058
ltoes 4.02171
331
root 0.620324 17.051 4.59758 -4.05043 3.49815 -0.453528
lowerback 12.6975 0.328256 -1.28081
upperback 0.461219 0.414824 2.35058
thorax -6.67362 0.281888 3.13652
lowerneck -15.2944 -4.80128 -10.6029
upperneck 27.8783 -5.60424 5.7247
head 12.2094 -2.90925 3.12145
rclavicle -3.77691e-015 1.82882e-014
rhumerus -43.2042 -8.18593 -76.1633
rradius 38.6891
rwrist 3.35665
rhand -19.7616 15.6212
rfingers 7.12502
rthumb 6.56995 -14.2569
lclavicle -3.77691e-015 1.82882e-014
lhumerus -41.0196 9.20389 87.4873
lradius 34.0376
lwrist -1.43989
lhand -25.259 23.5216
lfingers 7.12502
lthumb 1.26141 53.4976
rfemur -17.5249 -0.645408 22.0552
rtibia 42.8944
rfoot -12.902 -8.34949
rtoes 7.34314
lfemur -20.9517 -1.04627 -21.6572
ltibia 40.831
lfoot -11.9302 -1.54631
ltoes 3.92387
